<svg xmlns="http://www.w3.org/2000/svg" viewBox="0 0 232.12 181.4"><defs><style>.cls-1{font-size:95px;}.cls-1,.cls-3{fill:#4db5ff;}.cls-1,.cls-5{font-family:BebasNeue-Regular, Bebas Neue;}.cls-2,.cls-5{fill:#80eaff;}.cls-4{fill:#37f;}.cls-5{font-size:107.66px;}.cls-6{letter-spacing:-0.03em;}.cls-7{letter-spacing:0em;}</style></defs><g id="Camada_2" data-name="Camada 2"><g id="Camada_1-2" data-name="Camada 1"><text class="cls-1" transform="translate(4 162.4) scale(1.83 1)">EU</text><path class="cls-2" d="M193,158.2,190,161l-11.86-11.16V147h-3l-11.86-11.16,3-2.79,5.93,5.58,26.69-25.12,3,2.79,5.93-5.58,3,2.79v2.79h3l3,2.79-5.93,5.58,3,2.79L187,152.62Z"/><path class="cls-3" d="M177.83,161.29l-3,2.79-14.82-14,3-2.79,5.92,5.58,6.3-5.93,4.45-1.39-1.48,4.18-6.3,5.93Z"/><path class="cls-3" d="M227.12,103.74l-13.35,12.57-4.45,1.39,1.48-4.18L224.15,101Z"/><path class="cls-3" d="M187.09,141.41l3-2.79,3,2.79,3-2.79-3-2.79,3-2.79,3,2.79,3-2.79-3-2.79,3-2.79,3,2.79,3-2.79L199,119.1,178.2,138.62l8.89,8.37,3-2.79Z"/><path class="cls-4" d="M207.83,116.31l3-2.79,3,2.79-3,2.79Z"/><path class="cls-4" d="M175.22,147l3-2.79,3,2.79-3,2.79Z"/><text class="cls-5" transform="translate(0 91.51)"><tspan class="cls-6">V</tspan><tspan class="cls-7" x="38.11" y="0">a</tspan><tspan x="81.07" y="0">cina</tspan></text></g></g></svg>